<?xml version="1.0" encoding="utf-8"?>
<!-- Generator: Adobe Illustrator 16.0.3, SVG Export Plug-In . SVG Version: 6.00 Build 0)  -->
<!DOCTYPE svg PUBLIC "-//W3C//DTD SVG 1.1//EN" "http://www.w3.org/Graphics/SVG/1.1/DTD/svg11.dtd">
<svg version="1.1" id="Layer_1" xmlns="http://www.w3.org/2000/svg" xmlns:xlink="http://www.w3.org/1999/xlink" x="0px" y="0px"
	 width="357.991px" height="81.16px" viewBox="0 0 357.991 81.16" enable-background="new 0 0 357.991 81.16" xml:space="preserve">
<g>
	<g>
		<path fill="#FFFFFF" stroke="#6C6C6C" stroke-miterlimit="10" d="M40.27,10.51c-1.494,0-3.174-0.151-5.04-0.455
			c-1.867-0.303-3.804-0.665-5.81-1.085v44.94H19.34V7.57h-0.7c-2.1,0-3.85,0.245-5.25,0.735c-1.4,0.49-2.52,1.19-3.36,2.1
			c-0.84,0.91-1.424,2.042-1.75,3.395c-0.327,1.354-0.49,2.87-0.49,4.55c0,1.54,0.104,2.777,0.312,3.71
			c0.208,0.934,0.45,1.692,0.728,2.275c0.278,0.584,0.555,1.027,0.833,1.33c0.278,0.304,0.509,0.572,0.694,0.805
			c-2.933,0-5.226-0.688-6.878-2.065C1.826,23.029,1,20.59,1,17.09c0-2.193,0.372-4.246,1.117-6.16
			c0.745-1.913,1.944-3.57,3.596-4.97c1.653-1.4,3.794-2.496,6.425-3.29c2.629-0.793,5.854-1.19,9.671-1.19
			c1.862,0,3.549,0.082,5.063,0.245c1.513,0.164,2.934,0.35,4.264,0.56s2.648,0.397,3.955,0.56c1.306,0.164,2.683,0.245,4.13,0.245
			c1.96,0,3.605-0.151,4.935-0.455c1.33-0.303,2.438-0.641,3.325-1.015c0.14,0.934,0.21,1.75,0.21,2.45
			c0,2.1-0.572,3.699-1.715,4.795C44.831,9.962,42.93,10.51,40.27,10.51z"/>
		<path fill="#FFFFFF" stroke="#6C6C6C" stroke-miterlimit="10" d="M74.57,17.51c2.38,0,4.095,1.167,5.145,3.5
			c1.05,2.334,1.575,5.554,1.575,9.66c0,2.66-0.234,5.39-0.7,8.19c-0.467,2.8-1.26,5.344-2.38,7.63
			c-1.12,2.287-2.602,4.165-4.445,5.635c-1.844,1.47-4.142,2.205-6.895,2.205c-2.334,0-4.317-0.513-5.95-1.54
			c-1.634-1.026-2.847-2.473-3.64-4.34c-0.607,1.307-1.284,2.345-2.03,3.115c-0.747,0.77-1.517,1.365-2.31,1.785
			c-0.794,0.42-1.587,0.688-2.38,0.805c-0.794,0.116-1.54,0.175-2.24,0.175c-3.314,0-5.705-0.98-7.175-2.94
			c-1.47-1.96-2.205-4.596-2.205-7.91V18.91h10.08v23.8c0,1.774,0.245,3.022,0.735,3.745c0.49,0.724,1.201,1.085,2.135,1.085
			c1.26,0,2.263-0.583,3.01-1.75c0.746-1.166,1.19-2.636,1.33-4.41V18.91h10.08v23.8c0,1.68,0.233,2.905,0.7,3.675
			c0.466,0.77,1.236,1.155,2.31,1.155c1.353,0,2.52-0.536,3.5-1.61c0.98-1.073,1.785-2.45,2.415-4.13c0.63-1.68,1.096-3.546,1.4-5.6
			c0.303-2.053,0.455-4.06,0.455-6.02c0-2.146-0.187-4.153-0.56-6.02c-0.094,0.234-0.397,0.409-0.91,0.525
			c-0.514,0.117-0.91,0.175-1.19,0.175c-0.514,0-0.969-0.14-1.365-0.42c-0.397-0.28-0.747-0.641-1.05-1.085
			c-0.304-0.443-0.537-0.921-0.7-1.435c-0.164-0.513-0.245-1.003-0.245-1.47c0-0.84,0.291-1.54,0.875-2.1
			C72.528,17.79,73.403,17.51,74.57,17.51z"/>
		<path fill="#FFFFFF" stroke="#6C6C6C" stroke-miterlimit="10" d="M99,18.56c2.893,0,5.25,0.712,7.07,2.135
			c1.82,1.424,3.126,3.675,3.92,6.755c0.42-0.233,0.805-0.548,1.155-0.945c0.35-0.396,0.653-0.816,0.91-1.26
			c0.256-0.443,0.478-0.875,0.665-1.295c0.186-0.42,0.326-0.77,0.42-1.05h2.24c-0.187,0.7-0.409,1.47-0.665,2.31
			c-0.257,0.84-0.56,1.669-0.91,2.485c-0.35,0.817-0.782,1.599-1.295,2.345c-0.514,0.747-1.144,1.4-1.89,1.96
			c0.046,0.467,0.081,0.945,0.105,1.435c0.023,0.49,0.035,0.992,0.035,1.505c0,2.707-0.234,5.239-0.7,7.595
			c-0.467,2.357-1.249,4.41-2.345,6.16c-1.097,1.75-2.509,3.127-4.235,4.13c-1.727,1.004-3.85,1.505-6.37,1.505
			c-1.727,0-3.372-0.269-4.935-0.805c-1.564-0.536-2.952-1.423-4.165-2.66c-1.214-1.236-2.182-2.87-2.905-4.9
			c-0.724-2.03-1.085-4.515-1.085-7.455c0-2.006,0.21-4.165,0.63-6.475s1.19-4.468,2.31-6.475c1.12-2.006,2.648-3.675,4.585-5.005
			C93.481,19.225,95.966,18.56,99,18.56z M99.07,47.75c0.98,0,1.831-0.338,2.555-1.015c0.723-0.676,1.318-1.61,1.785-2.8
			c0.466-1.19,0.805-2.601,1.015-4.235c0.21-1.633,0.315-3.406,0.315-5.32V33.4c-1.867-0.42-2.8-1.796-2.8-4.13
			c0-1.493,0.606-2.473,1.82-2.94c-0.514-1.493-1.132-2.461-1.855-2.905c-0.724-0.443-1.342-0.665-1.855-0.665
			c-1.027,0-1.902,0.479-2.625,1.435c-0.724,0.957-1.319,2.17-1.785,3.64c-0.467,1.47-0.805,3.092-1.015,4.865
			c-0.21,1.774-0.315,3.477-0.315,5.11c0,2.1,0.151,3.804,0.455,5.11c0.303,1.307,0.688,2.31,1.155,3.01
			c0.466,0.7,0.98,1.179,1.54,1.435C98.02,47.622,98.556,47.75,99.07,47.75z"/>
		<path fill="#FFFFFF" stroke="#6C6C6C" stroke-miterlimit="10" d="M165.779,22.41v5.18h-10.22v26.32h-10.22V7.15
			c-1.027,0.094-1.96,0.304-2.8,0.63c-0.84,0.327-1.552,0.852-2.135,1.575c-0.584,0.724-1.027,1.692-1.33,2.905
			c-0.304,1.214-0.455,2.73-0.455,4.55c0,1.54,0.105,2.859,0.315,3.955c0.21,1.097,0.466,2.019,0.77,2.765
			c0.303,0.747,0.618,1.342,0.945,1.785c0.326,0.444,0.606,0.805,0.84,1.085c-3.174,0-5.53-0.735-7.07-2.205
			c-1.54-1.47-2.31-3.815-2.31-7.035c0-2.193,0.373-4.246,1.12-6.16c0.746-1.913,1.913-3.581,3.5-5.005
			c1.586-1.423,3.605-2.543,6.055-3.36c2.45-0.816,5.378-1.225,8.785-1.225c1.166,0,2.275,0.047,3.325,0.14
			c1.05,0.094,2.065,0.187,3.045,0.28c0.98,0.094,1.983,0.187,3.01,0.28c1.026,0.094,2.123,0.14,3.29,0.14
			c1.166,0,2.263-0.058,3.29-0.175c1.026-0.116,2.006-0.338,2.94-0.665c0,1.867-0.164,3.349-0.49,4.445
			c-0.327,1.097-0.77,1.937-1.33,2.52c-0.56,0.584-1.202,0.969-1.925,1.155c-0.724,0.187-1.482,0.28-2.275,0.28
			c-1.307,0-2.719-0.128-4.235-0.385c-1.517-0.256-3.069-0.548-4.655-0.875v13.86H165.779z"/>
		<path fill="#FFFFFF" stroke="#6C6C6C" stroke-miterlimit="10" d="M198.33,18.91v23.8c0,1.96,0.269,3.255,0.805,3.885
			s1.481,0.945,2.835,0.945s2.485-0.583,3.396-1.75c0.91-1.166,1.435-2.636,1.575-4.41h2.939c-0.374,2.847-1.026,5.122-1.96,6.825
			c-0.934,1.704-1.983,3.01-3.149,3.92c-1.167,0.91-2.357,1.505-3.57,1.785c-1.214,0.28-2.287,0.42-3.22,0.42
			c-2.475,0-4.353-0.571-5.636-1.715c-1.284-1.143-2.182-2.718-2.694-4.725c-0.374,0.794-0.817,1.575-1.33,2.345
			c-0.514,0.77-1.132,1.459-1.855,2.065c-0.724,0.607-1.564,1.097-2.52,1.47c-0.957,0.373-2.065,0.56-3.325,0.56
			c-1.494,0-2.964-0.28-4.41-0.84c-1.447-0.56-2.765-1.47-3.955-2.73c-1.19-1.26-2.147-2.928-2.87-5.005
			c-0.724-2.076-1.085-4.631-1.085-7.665c0-2.146,0.245-4.363,0.735-6.65c0.49-2.286,1.26-4.386,2.31-6.3
			c1.05-1.913,2.426-3.488,4.13-4.725c1.703-1.236,3.768-1.855,6.195-1.855c0.56,0,1.166,0.035,1.82,0.105
			c0.653,0.07,1.283,0.234,1.89,0.49c0.606,0.257,1.166,0.63,1.68,1.12c0.513,0.49,0.91,1.155,1.19,1.995v-3.36H198.33z
			 M188.25,25.63c-0.047-0.186-0.14-0.431-0.28-0.735c-0.14-0.303-0.35-0.606-0.63-0.91c-0.28-0.303-0.63-0.56-1.05-0.77
			s-0.91-0.315-1.47-0.315c-1.12,0-2.089,0.479-2.905,1.435c-0.817,0.957-1.47,2.147-1.96,3.57c-0.49,1.424-0.852,2.987-1.085,4.69
			c-0.234,1.704-0.35,3.325-0.35,4.865c0,2.474,0.186,4.399,0.56,5.775c0.373,1.377,0.828,2.38,1.365,3.01
			c0.536,0.63,1.108,1.004,1.715,1.12c0.606,0.117,1.12,0.175,1.54,0.175c0.513,0,1.038-0.128,1.575-0.385
			c0.536-0.256,1.026-0.641,1.47-1.155c0.443-0.513,0.805-1.155,1.085-1.925c0.28-0.77,0.42-1.668,0.42-2.695V25.63z"/>
		<path fill="#FFFFFF" stroke="#6C6C6C" stroke-miterlimit="10" d="M223.178,29.766c0.093-0.37,0.15-0.693,0.175-0.971
			c0.023-0.278,0.035-0.647,0.035-1.11c0-1.897-0.27-3.262-0.805-4.095c-0.537-0.833-1.226-1.25-2.065-1.25
			c-0.934,0-1.739,0.478-2.415,1.432c-0.677,0.954-1.237,2.165-1.68,3.63c-0.444,1.466-0.771,3.106-0.98,4.922
			c-0.21,1.816-0.314,3.584-0.314,5.306c0,2.188,0.15,3.979,0.455,5.375c0.303,1.396,0.758,2.49,1.364,3.281
			c0.606,0.792,1.365,1.35,2.275,1.676c0.91,0.326,1.948,0.489,3.115,0.489c1.399,0,2.625-0.186,3.675-0.56
			c1.05-0.373,1.995-0.875,2.835-1.505s1.61-1.376,2.31-2.24c0.7-0.863,1.376-1.785,2.03-2.765h2.38
			c-0.654,1.634-1.435,3.22-2.345,4.76s-2.03,2.917-3.36,4.13c-1.33,1.214-2.894,2.194-4.689,2.94
			c-1.797,0.746-3.886,1.12-6.266,1.12c-1.96,0-3.779-0.292-5.46-0.875c-1.68-0.583-3.139-1.516-4.375-2.8
			c-1.236-1.283-2.193-2.951-2.87-5.005c-0.677-2.053-1.015-4.526-1.015-7.42c0-1.96,0.198-4.095,0.595-6.405
			s1.131-4.445,2.205-6.405c1.073-1.96,2.531-3.593,4.375-4.9c1.843-1.306,4.235-1.96,7.175-1.96c1.82,0,3.325,0.257,4.516,0.77
			c1.189,0.514,2.135,1.155,2.835,1.925s1.189,1.61,1.47,2.52c0.28,0.91,0.42,1.785,0.42,2.625c0,1.214-0.245,2.217-0.734,3.01
			c-0.49,0.794-1.155,1.19-1.995,1.19c-0.374,0-0.817-0.069-1.33-0.208C224.204,30.253,223.691,30.044,223.178,29.766z"/>
		<path fill="#FFFFFF" stroke="#6C6C6C" stroke-miterlimit="10" d="M249.147,48.45c1.4,0,2.636-0.186,3.71-0.56
			c1.073-0.373,2.03-0.875,2.87-1.505s1.61-1.376,2.31-2.24c0.7-0.863,1.376-1.785,2.03-2.765h2.38
			c-0.654,1.634-1.435,3.22-2.345,4.76s-2.03,2.917-3.36,4.13c-1.33,1.214-2.882,2.194-4.654,2.94
			c-1.774,0.746-3.851,1.12-6.23,1.12c-2.007,0-3.85-0.304-5.53-0.91c-1.68-0.605-3.139-1.551-4.375-2.835
			c-1.236-1.283-2.193-2.94-2.87-4.97c-0.677-2.03-1.015-4.468-1.015-7.315c0-2.006,0.221-4.165,0.665-6.475
			c0.443-2.31,1.225-4.445,2.345-6.405c1.12-1.96,2.637-3.593,4.551-4.9c1.912-1.306,4.34-1.96,7.279-1.96
			c2.24,0,3.966,0.35,5.181,1.05c1.213,0.7,2.11,1.517,2.694,2.45c0.583,0.934,0.934,1.844,1.05,2.73
			c0.116,0.887,0.176,1.517,0.176,1.89c0,2.1-0.386,3.944-1.155,5.53c-0.771,1.587-1.797,2.929-3.08,4.025
			c-1.284,1.097-2.754,1.937-4.41,2.52c-1.657,0.584-3.349,0.922-5.075,1.015c0.046,3.127,0.571,5.355,1.575,6.685
			C244.865,47.785,246.627,48.45,249.147,48.45z M250.617,26.798c0-1.625-0.279-2.774-0.84-3.448c-0.56-0.673-1.167-1.01-1.82-1.01
			c-0.794,0-1.517,0.384-2.17,1.149c-0.653,0.767-1.225,1.788-1.715,3.064c-0.49,1.278-0.887,2.775-1.189,4.493
			c-0.305,1.718-0.502,3.505-0.596,5.363c1.166-0.092,2.264-0.406,3.29-0.939s1.913-1.23,2.66-2.09
			c0.746-0.858,1.33-1.845,1.75-2.959C250.407,29.306,250.617,28.098,250.617,26.798z"/>
		<path fill="#FFFFFF" stroke="#6C6C6C" stroke-miterlimit="10" d="M288.906,4.91v37.8c0,1.96,0.269,3.255,0.805,3.885
			s1.481,0.945,2.835,0.945c0.561,0,1.026-0.093,1.4-0.28c-0.42,2.614-1.015,4.445-1.785,5.495c-0.77,1.05-2.135,1.575-4.095,1.575
			c-2.334,0-4.107-0.583-5.32-1.75c-1.214-1.166-2.054-2.73-2.52-4.69c-0.374,0.794-0.817,1.575-1.33,2.345
			c-0.515,0.77-1.132,1.459-1.855,2.065c-0.724,0.607-1.563,1.097-2.52,1.47c-0.957,0.373-2.065,0.56-3.325,0.56
			c-1.494,0-2.964-0.28-4.41-0.84c-1.447-0.56-2.765-1.47-3.955-2.73c-1.189-1.26-2.146-2.928-2.87-5.005
			c-0.724-2.076-1.085-4.631-1.085-7.665c0-2.146,0.245-4.363,0.735-6.65c0.49-2.286,1.26-4.386,2.31-6.3
			c1.051-1.913,2.427-3.488,4.131-4.725c1.702-1.236,3.768-1.855,6.194-1.855c0.561,0,1.166,0.035,1.82,0.105
			c0.653,0.07,1.283,0.234,1.89,0.49c0.606,0.257,1.166,0.63,1.681,1.12c0.513,0.49,0.909,1.155,1.189,1.995V6.31L288.906,4.91z
			 M275.396,22.9c-1.12,0-2.089,0.479-2.905,1.435c-0.816,0.957-1.47,2.147-1.96,3.57c-0.49,1.424-0.852,2.987-1.085,4.69
			c-0.234,1.704-0.35,3.325-0.35,4.865c0,2.474,0.186,4.399,0.56,5.775c0.373,1.377,0.828,2.38,1.365,3.01
			c0.536,0.63,1.107,1.004,1.715,1.12c0.606,0.117,1.12,0.175,1.54,0.175c0.513,0,1.038-0.128,1.575-0.385
			c0.536-0.256,1.025-0.641,1.47-1.155c0.443-0.513,0.805-1.143,1.085-1.89c0.28-0.746,0.42-1.633,0.42-2.66V25.56
			c-0.094-0.186-0.21-0.431-0.35-0.735c-0.141-0.303-0.351-0.595-0.63-0.875c-0.28-0.28-0.619-0.525-1.016-0.735
			S275.956,22.9,275.396,22.9z"/>
	</g>
</g>
<g>
	<path fill="#6C6C6C" d="M194.965,64.691c-1.129,0-2.025,0.597-2.692,1.79c-0.666,1.193-1,2.845-1,4.958
		c0,1.374,0.154,2.57,0.461,3.589s0.748,1.801,1.322,2.348s1.241,0.82,2,0.82c0.779,0,1.449-0.14,2.01-0.42v0.923
		c-0.533,0.308-1.234,0.461-2.102,0.461c-0.951,0-1.783-0.308-2.497-0.923c-0.715-0.615-1.267-1.505-1.656-2.671
		s-0.584-2.548-0.584-4.148c0-2.393,0.425-4.272,1.277-5.64c0.851-1.367,2.012-2.051,3.48-2.051c0.916,0,1.717,0.212,2.4,0.636
		l-0.462,0.882C196.349,64.876,195.696,64.691,194.965,64.691z"/>
	<path fill="#6C6C6C" d="M221.555,73.693c0,1.737-0.26,3.072-0.779,4.005c-0.52,0.933-1.27,1.399-2.25,1.399
		c-0.99,0-1.742-0.47-2.254-1.411c-0.512-0.94-0.768-2.276-0.768-4.008c0-1.809,0.254-3.156,0.761-4.042
		c0.507-0.885,1.269-1.328,2.282-1.328c0.977,0,1.722,0.465,2.236,1.396C221.297,70.637,221.555,71.966,221.555,73.693z
		 M216.237,73.693c0,1.56,0.194,2.738,0.584,3.535c0.391,0.796,0.959,1.195,1.705,1.195c0.752,0,1.322-0.395,1.712-1.184
		s0.585-1.972,0.585-3.546c0-1.555-0.191-2.729-0.574-3.521s-0.949-1.188-1.701-1.188c-0.77,0-1.348,0.401-1.733,1.202
		C216.428,70.989,216.237,72.157,216.237,73.693z"/>
	<path fill="#6C6C6C" d="M239.288,76.206c0,0.861-0.24,1.559-0.719,2.092s-1.086,0.8-1.822,0.8c-0.838,0-1.51-0.122-2.018-0.366
		v-0.761c0.249,0.139,0.558,0.249,0.926,0.33c0.369,0.082,0.732,0.122,1.092,0.122c0.535,0,0.976-0.203,1.32-0.61
		c0.344-0.407,0.517-0.924,0.517-1.55c0-0.579-0.122-1.039-0.366-1.378s-0.711-0.679-1.399-1.019
		c-0.541-0.273-0.945-0.537-1.213-0.793c-0.269-0.256-0.467-0.554-0.596-0.894c-0.13-0.34-0.194-0.747-0.194-1.22
		c0-0.517,0.105-0.976,0.316-1.378s0.504-0.714,0.883-0.937c0.378-0.222,0.791-0.333,1.242-0.333c0.406,0,0.775,0.045,1.108,0.136
		s0.595,0.189,0.786,0.294l-0.273,0.675c-0.531-0.273-1.072-0.409-1.621-0.409c-0.518,0-0.938,0.176-1.26,0.527
		c-0.324,0.352-0.485,0.817-0.485,1.396c0,0.589,0.118,1.046,0.353,1.371c0.234,0.326,0.693,0.663,1.377,1.012
		c0.709,0.344,1.227,0.748,1.555,1.209S239.288,75.545,239.288,76.206z"/>
	<path fill="#6C6C6C" d="M256.28,78.955l-2.793-9.554h-0.057c0.048,1.005,0.072,1.642,0.072,1.909v7.645h-0.676V68.461h1.041
		l2.354,8.024c0.21,0.708,0.347,1.311,0.409,1.809h0.058c0.048-0.354,0.196-0.952,0.444-1.794l2.334-8.039h1.076v10.494h-0.703
		v-7.587c0-0.296,0.023-0.947,0.071-1.952h-0.058l-2.777,9.539H256.28z"/>
	<path fill="#6C6C6C" d="M278.405,78.955H274.6V68.461h3.805v0.674h-3.102v3.984h2.929v0.675h-2.929v4.486h3.102V78.955z"/>
	<path fill="#6C6C6C" d="M293.76,78.955h-0.703v-9.819h-2.089v-0.674h4.881v0.674h-2.089V78.955z"/>
	<path fill="#6C6C6C" d="M308.879,78.955V68.461h0.703v10.494H308.879z"/>
	<path fill="#6C6C6C" d="M326.604,68.97c-0.789,0-1.418,0.417-1.885,1.252c-0.466,0.835-0.699,1.992-0.699,3.471
		c0,0.962,0.107,1.799,0.323,2.512s0.524,1.261,0.926,1.644s0.868,0.574,1.399,0.574c0.546,0,1.015-0.098,1.407-0.294v0.646
		c-0.374,0.216-0.864,0.323-1.472,0.323c-0.665,0-1.248-0.215-1.748-0.646s-0.887-1.054-1.158-1.87
		c-0.273-0.816-0.41-1.784-0.41-2.903c0-1.675,0.299-2.991,0.895-3.948c0.596-0.957,1.407-1.436,2.436-1.436
		c0.643,0,1.201,0.148,1.68,0.445l-0.322,0.617C327.573,69.1,327.116,68.97,326.604,68.97z"/>
	<path fill="#6C6C6C" d="M345.6,76.206c0,0.861-0.24,1.559-0.719,2.092s-1.086,0.8-1.822,0.8c-0.838,0-1.51-0.122-2.018-0.366
		v-0.761c0.249,0.139,0.558,0.249,0.926,0.33c0.369,0.082,0.732,0.122,1.092,0.122c0.535,0,0.976-0.203,1.32-0.61
		c0.344-0.407,0.517-0.924,0.517-1.55c0-0.579-0.122-1.039-0.366-1.378s-0.711-0.679-1.399-1.019
		c-0.541-0.273-0.945-0.537-1.213-0.793c-0.269-0.256-0.467-0.554-0.596-0.894c-0.13-0.34-0.194-0.747-0.194-1.22
		c0-0.517,0.105-0.976,0.316-1.378s0.504-0.714,0.883-0.937c0.378-0.222,0.791-0.333,1.242-0.333c0.406,0,0.775,0.045,1.108,0.136
		s0.595,0.189,0.786,0.294l-0.273,0.675c-0.531-0.273-1.072-0.409-1.621-0.409c-0.518,0-0.938,0.176-1.26,0.527
		c-0.324,0.352-0.485,0.817-0.485,1.396c0,0.589,0.118,1.046,0.353,1.371c0.234,0.326,0.693,0.663,1.377,1.012
		c0.709,0.344,1.227,0.748,1.555,1.209S345.6,75.545,345.6,76.206z"/>
</g>
</svg>
